# xmcd CD database file
#
# Track frame offsets:
#	150
#	11810
#	23198
#	40619
#	51835
#	64688
#	74333
#	86885
#	101041
#	112702
#	124370
#	134433
#	144475
#	160188
#	171185
#
# Disc length: 2404 seconds
#
# Revision: 0
# Processed by: cddbd v1.5.2PL0 Copyright (c) Steve Scherf et al.
# Submitted via: CDex 1.51
#
DISCID=d009620f
DTITLE=Various Artist - Country Crossovers CD 1
DYEAR=1900
DGENRE=Country
TTITLE0=Don Gibson - Oh Lonesome Me
TTITLE1=Sandy Posey - Single Girl
TTITLE2=Don Williams - I Believe In you
TTITLE3=Roger Miller - King of The Raod
TTITLE4=Lynn Anderson - Rose Garden
TTITLE5=George Jones - The race Is On
TTITLE6=Johnny Cash - Ring Of Fire
TTITLE7=Conway Twitty - You've Never Been This Far Before
TTITLE8=Merle Haggard - Okie From Muskogee
TTITLE9=Kenny Rogers - Me And Bobby McGee
TTITLE10=Willie Nelson - On The Road Again
TTITLE11=Jim Reeves - He'll Have To Go
TTITLE12=Anne Murray - There Goes My Everything
TTITLE13=Lynn Anderson - Heaven's Just A Sin Away
TTITLE14=Tammy Wynette - Rocky Top
EXTD=
EXTT0=
EXTT1=
EXTT2=
EXTT3=
EXTT4=
EXTT5=
EXTT6=
EXTT7=
EXTT8=
EXTT9=
EXTT10=
EXTT11=
EXTT12=
EXTT13=
EXTT14=
PLAYORDER=
